<?xml version="1.0" encoding="UTF-8" standalone="no"?>
<!DOCTYPE svg PUBLIC "-//W3C//DTD SVG 1.1//EN" "http://www.w3.org/Graphics/SVG/1.1/DTD/svg11.dtd">
<svg width="100%" height="100%" viewBox="0 0 168 168" version="1.1" xmlns="http://www.w3.org/2000/svg" xmlns:xlink="http://www.w3.org/1999/xlink" xml:space="preserve" xmlns:serif="http://www.serif.com/" style="fill-rule:evenodd;clip-rule:evenodd;stroke-linejoin:round;stroke-miterlimit:2;">
    <g id="Artboard1" transform="matrix(1,0,0,1,-16,-16)">
        <rect x="16" y="16" width="168" height="168" style="fill:none;"/>
        <clipPath id="_clip1">
            <rect x="16" y="16" width="168" height="168"/>
        </clipPath>
        <g clip-path="url(#_clip1)">
            <rect x="0" y="0" width="200" height="200" style="fill:white;"/>
            <rect x="16" y="16" width="8" height="8"/>
            <rect x="24" y="16" width="8" height="8"/>
            <rect x="32" y="16" width="8" height="8"/>
            <rect x="40" y="16" width="8" height="8"/>
            <rect x="48" y="16" width="8" height="8"/>
            <rect x="56" y="16" width="8" height="8"/>
            <rect x="64" y="16" width="8" height="8"/>
            <rect x="80" y="16" width="8" height="8"/>
            <rect x="96" y="16" width="8" height="8"/>
            <rect x="128" y="16" width="8" height="8"/>
            <rect x="136" y="16" width="8" height="8"/>
            <rect x="144" y="16" width="8" height="8"/>
            <rect x="152" y="16" width="8" height="8"/>
            <rect x="160" y="16" width="8" height="8"/>
            <rect x="168" y="16" width="8" height="8"/>
            <rect x="176" y="16" width="8" height="8"/>
            <rect x="16" y="24" width="8" height="8"/>
            <rect x="64" y="24" width="8" height="8"/>
            <rect x="96" y="24" width="8" height="8"/>
            <rect x="128" y="24" width="8" height="8"/>
            <rect x="176" y="24" width="8" height="8"/>
            <rect x="16" y="32" width="8" height="8"/>
            <rect x="32" y="32" width="8" height="8"/>
            <rect x="40" y="32" width="8" height="8"/>
            <rect x="48" y="32" width="8" height="8"/>
            <rect x="64" y="32" width="8" height="8"/>
            <rect x="80" y="32" width="8" height="8"/>
            <rect x="88" y="32" width="8" height="8"/>
            <rect x="96" y="32" width="8" height="8"/>
            <rect x="112" y="32" width="8" height="8"/>
            <rect x="128" y="32" width="8" height="8"/>
            <rect x="144" y="32" width="8" height="8"/>
            <rect x="152" y="32" width="8" height="8"/>
            <rect x="160" y="32" width="8" height="8"/>
            <rect x="176" y="32" width="8" height="8"/>
            <rect x="16" y="40" width="8" height="8"/>
            <rect x="32" y="40" width="8" height="8"/>
            <rect x="40" y="40" width="8" height="8"/>
            <rect x="48" y="40" width="8" height="8"/>
            <rect x="64" y="40" width="8" height="8"/>
            <rect x="80" y="40" width="8" height="8"/>
            <rect x="88" y="40" width="8" height="8"/>
            <rect x="96" y="40" width="8" height="8"/>
            <rect x="104" y="40" width="8" height="8"/>
            <rect x="128" y="40" width="8" height="8"/>
            <rect x="144" y="40" width="8" height="8"/>
            <rect x="152" y="40" width="8" height="8"/>
            <rect x="160" y="40" width="8" height="8"/>
            <rect x="176" y="40" width="8" height="8"/>
            <rect x="16" y="48" width="8" height="8"/>
            <rect x="32" y="48" width="8" height="8"/>
            <rect x="40" y="48" width="8" height="8"/>
            <rect x="48" y="48" width="8" height="8"/>
            <rect x="64" y="48" width="8" height="8"/>
            <rect x="80" y="48" width="8" height="8"/>
            <rect x="88" y="48" width="8" height="8"/>
            <rect x="96" y="48" width="8" height="8"/>
            <rect x="104" y="48" width="8" height="8"/>
            <rect x="112" y="48" width="8" height="8"/>
            <rect x="128" y="48" width="8" height="8"/>
            <rect x="144" y="48" width="8" height="8"/>
            <rect x="152" y="48" width="8" height="8"/>
            <rect x="160" y="48" width="8" height="8"/>
            <rect x="176" y="48" width="8" height="8"/>
            <rect x="16" y="56" width="8" height="8"/>
            <rect x="64" y="56" width="8" height="8"/>
            <rect x="96" y="56" width="8" height="8"/>
            <rect x="128" y="56" width="8" height="8"/>
            <rect x="176" y="56" width="8" height="8"/>
            <rect x="16" y="64" width="8" height="8"/>
            <rect x="24" y="64" width="8" height="8"/>
            <rect x="32" y="64" width="8" height="8"/>
            <rect x="40" y="64" width="8" height="8"/>
            <rect x="48" y="64" width="8" height="8"/>
            <rect x="56" y="64" width="8" height="8"/>
            <rect x="64" y="64" width="8" height="8"/>
            <rect x="80" y="64" width="8" height="8"/>
            <rect x="96" y="64" width="8" height="8"/>
            <rect x="112" y="64" width="8" height="8"/>
            <rect x="128" y="64" width="8" height="8"/>
            <rect x="136" y="64" width="8" height="8"/>
            <rect x="144" y="64" width="8" height="8"/>
            <rect x="152" y="64" width="8" height="8"/>
            <rect x="160" y="64" width="8" height="8"/>
            <rect x="168" y="64" width="8" height="8"/>
            <rect x="176" y="64" width="8" height="8"/>
            <rect x="104" y="72" width="8" height="8"/>
            <rect x="16" y="80" width="8" height="8"/>
            <rect x="24" y="80" width="8" height="8"/>
            <rect x="32" y="80" width="8" height="8"/>
            <rect x="40" y="80" width="8" height="8"/>
            <rect x="64" y="80" width="8" height="8"/>
            <rect x="80" y="80" width="8" height="8"/>
            <rect x="96" y="80" width="8" height="8"/>
            <rect x="104" y="80" width="8" height="8"/>
            <rect x="120" y="80" width="8" height="8"/>
            <rect x="144" y="80" width="8" height="8"/>
            <rect x="152" y="80" width="8" height="8"/>
            <rect x="160" y="80" width="8" height="8"/>
            <rect x="176" y="80" width="8" height="8"/>
            <rect x="16" y="88" width="8" height="8"/>
            <rect x="32" y="88" width="8" height="8"/>
            <rect x="40" y="88" width="8" height="8"/>
            <rect x="80" y="88" width="8" height="8"/>
            <rect x="96" y="88" width="8" height="8"/>
            <rect x="104" y="88" width="8" height="8"/>
            <rect x="120" y="88" width="8" height="8"/>
            <rect x="128" y="88" width="8" height="8"/>
            <rect x="136" y="88" width="8" height="8"/>
            <rect x="144" y="88" width="8" height="8"/>
            <rect x="152" y="88" width="8" height="8"/>
            <rect x="160" y="88" width="8" height="8"/>
            <rect x="168" y="88" width="8" height="8"/>
            <rect x="176" y="88" width="8" height="8"/>
            <rect x="16" y="96" width="8" height="8"/>
            <rect x="32" y="96" width="8" height="8"/>
            <rect x="40" y="96" width="8" height="8"/>
            <rect x="56" y="96" width="8" height="8"/>
            <rect x="64" y="96" width="8" height="8"/>
            <rect x="72" y="96" width="8" height="8"/>
            <rect x="96" y="96" width="8" height="8"/>
            <rect x="120" y="96" width="8" height="8"/>
            <rect x="152" y="96" width="8" height="8"/>
            <rect x="168" y="96" width="8" height="8"/>
            <rect x="176" y="96" width="8" height="8"/>
            <rect x="32" y="104" width="8" height="8"/>
            <rect x="40" y="104" width="8" height="8"/>
            <rect x="48" y="104" width="8" height="8"/>
            <rect x="56" y="104" width="8" height="8"/>
            <rect x="80" y="104" width="8" height="8"/>
            <rect x="104" y="104" width="8" height="8"/>
            <rect x="112" y="104" width="8" height="8"/>
            <rect x="136" y="104" width="8" height="8"/>
            <rect x="152" y="104" width="8" height="8"/>
            <rect x="168" y="104" width="8" height="8"/>
            <rect x="24" y="112" width="8" height="8"/>
            <rect x="48" y="112" width="8" height="8"/>
            <rect x="64" y="112" width="8" height="8"/>
            <rect x="80" y="112" width="8" height="8"/>
            <rect x="88" y="112" width="8" height="8"/>
            <rect x="96" y="112" width="8" height="8"/>
            <rect x="112" y="112" width="8" height="8"/>
            <rect x="120" y="112" width="8" height="8"/>
            <rect x="128" y="112" width="8" height="8"/>
            <rect x="144" y="112" width="8" height="8"/>
            <rect x="152" y="112" width="8" height="8"/>
            <rect x="176" y="112" width="8" height="8"/>
            <rect x="80" y="120" width="8" height="8"/>
            <rect x="96" y="120" width="8" height="8"/>
            <rect x="112" y="120" width="8" height="8"/>
            <rect x="128" y="120" width="8" height="8"/>
            <rect x="144" y="120" width="8" height="8"/>
            <rect x="16" y="128" width="8" height="8"/>
            <rect x="24" y="128" width="8" height="8"/>
            <rect x="32" y="128" width="8" height="8"/>
            <rect x="40" y="128" width="8" height="8"/>
            <rect x="48" y="128" width="8" height="8"/>
            <rect x="56" y="128" width="8" height="8"/>
            <rect x="64" y="128" width="8" height="8"/>
            <rect x="104" y="128" width="8" height="8"/>
            <rect x="120" y="128" width="8" height="8"/>
            <rect x="144" y="128" width="8" height="8"/>
            <rect x="16" y="136" width="8" height="8"/>
            <rect x="64" y="136" width="8" height="8"/>
            <rect x="88" y="136" width="8" height="8"/>
            <rect x="96" y="136" width="8" height="8"/>
            <rect x="120" y="136" width="8" height="8"/>
            <rect x="136" y="136" width="8" height="8"/>
            <rect x="144" y="136" width="8" height="8"/>
            <rect x="152" y="136" width="8" height="8"/>
            <rect x="160" y="136" width="8" height="8"/>
            <rect x="168" y="136" width="8" height="8"/>
            <rect x="16" y="144" width="8" height="8"/>
            <rect x="32" y="144" width="8" height="8"/>
            <rect x="40" y="144" width="8" height="8"/>
            <rect x="48" y="144" width="8" height="8"/>
            <rect x="64" y="144" width="8" height="8"/>
            <rect x="88" y="144" width="8" height="8"/>
            <rect x="96" y="144" width="8" height="8"/>
            <rect x="104" y="144" width="8" height="8"/>
            <rect x="144" y="144" width="8" height="8"/>
            <rect x="160" y="144" width="8" height="8"/>
            <rect x="176" y="144" width="8" height="8"/>
            <rect x="16" y="152" width="8" height="8"/>
            <rect x="32" y="152" width="8" height="8"/>
            <rect x="40" y="152" width="8" height="8"/>
            <rect x="48" y="152" width="8" height="8"/>
            <rect x="64" y="152" width="8" height="8"/>
            <rect x="80" y="152" width="8" height="8"/>
            <rect x="96" y="152" width="8" height="8"/>
            <rect x="104" y="152" width="8" height="8"/>
            <rect x="112" y="152" width="8" height="8"/>
            <rect x="120" y="152" width="8" height="8"/>
            <rect x="128" y="152" width="8" height="8"/>
            <rect x="136" y="152" width="8" height="8"/>
            <rect x="16" y="160" width="8" height="8"/>
            <rect x="32" y="160" width="8" height="8"/>
            <rect x="40" y="160" width="8" height="8"/>
            <rect x="48" y="160" width="8" height="8"/>
            <rect x="64" y="160" width="8" height="8"/>
            <rect x="80" y="160" width="8" height="8"/>
            <rect x="104" y="160" width="8" height="8"/>
            <rect x="112" y="160" width="8" height="8"/>
            <rect x="136" y="160" width="8" height="8"/>
            <rect x="160" y="160" width="8" height="8"/>
            <rect x="16" y="168" width="8" height="8"/>
            <rect x="64" y="168" width="8" height="8"/>
            <rect x="80" y="168" width="8" height="8"/>
            <rect x="120" y="168" width="8" height="8"/>
            <rect x="128" y="168" width="8" height="8"/>
            <rect x="136" y="168" width="8" height="8"/>
            <rect x="144" y="168" width="8" height="8"/>
            <rect x="176" y="168" width="8" height="8"/>
            <rect x="16" y="176" width="8" height="8"/>
            <rect x="24" y="176" width="8" height="8"/>
            <rect x="32" y="176" width="8" height="8"/>
            <rect x="40" y="176" width="8" height="8"/>
            <rect x="48" y="176" width="8" height="8"/>
            <rect x="56" y="176" width="8" height="8"/>
            <rect x="64" y="176" width="8" height="8"/>
            <rect x="80" y="176" width="8" height="8"/>
            <rect x="120" y="176" width="8" height="8"/>
            <rect x="128" y="176" width="8" height="8"/>
            <rect x="144" y="176" width="8" height="8"/>
            <rect x="152" y="176" width="8" height="8"/>
            <g transform="matrix(1,0,0,1,-2,0)">
                <rect x="160" y="176" width="8" height="8"/>
            </g>
        </g>
    </g>
</svg>
