<?xml version='1.0' encoding='UTF-8'?>
<svg xmlns="http://www.w3.org/2000/svg" version="1.1" baseProfile="tiny" width="168" height="168">
<rect x="0" y="0" width="168" height="168" fill="white"/>
<rect x="0" y="0" width="8" height="8" fill="black"/>
<rect x="8" y="0" width="8" height="8" fill="black"/>
<rect x="16" y="0" width="8" height="8" fill="black"/>
<rect x="24" y="0" width="8" height="8" fill="black"/>
<rect x="32" y="0" width="8" height="8" fill="black"/>
<rect x="40" y="0" width="8" height="8" fill="black"/>
<rect x="48" y="0" width="8" height="8" fill="black"/>
<rect x="64" y="0" width="8" height="8" fill="black"/>
<rect x="80" y="0" width="8" height="8" fill="black"/>
<rect x="112" y="0" width="8" height="8" fill="black"/>
<rect x="120" y="0" width="8" height="8" fill="black"/>
<rect x="128" y="0" width="8" height="8" fill="black"/>
<rect x="136" y="0" width="8" height="8" fill="black"/>
<rect x="144" y="0" width="8" height="8" fill="black"/>
<rect x="152" y="0" width="8" height="8" fill="black"/>
<rect x="160" y="0" width="8" height="8" fill="black"/>
<rect x="0" y="8" width="8" height="8" fill="black"/>
<rect x="48" y="8" width="8" height="8" fill="black"/>
<rect x="80" y="8" width="8" height="8" fill="black"/>
<rect x="112" y="8" width="8" height="8" fill="black"/>
<rect x="160" y="8" width="8" height="8" fill="black"/>
<rect x="0" y="16" width="8" height="8" fill="black"/>
<rect x="16" y="16" width="8" height="8" fill="black"/>
<rect x="24" y="16" width="8" height="8" fill="black"/>
<rect x="32" y="16" width="8" height="8" fill="black"/>
<rect x="48" y="16" width="8" height="8" fill="black"/>
<rect x="64" y="16" width="8" height="8" fill="black"/>
<rect x="72" y="16" width="8" height="8" fill="black"/>
<rect x="80" y="16" width="8" height="8" fill="black"/>
<rect x="96" y="16" width="8" height="8" fill="black"/>
<rect x="112" y="16" width="8" height="8" fill="black"/>
<rect x="128" y="16" width="8" height="8" fill="black"/>
<rect x="136" y="16" width="8" height="8" fill="black"/>
<rect x="144" y="16" width="8" height="8" fill="black"/>
<rect x="160" y="16" width="8" height="8" fill="black"/>
<rect x="0" y="24" width="8" height="8" fill="black"/>
<rect x="16" y="24" width="8" height="8" fill="black"/>
<rect x="24" y="24" width="8" height="8" fill="black"/>
<rect x="32" y="24" width="8" height="8" fill="black"/>
<rect x="48" y="24" width="8" height="8" fill="black"/>
<rect x="64" y="24" width="8" height="8" fill="black"/>
<rect x="72" y="24" width="8" height="8" fill="black"/>
<rect x="80" y="24" width="8" height="8" fill="black"/>
<rect x="88" y="24" width="8" height="8" fill="black"/>
<rect x="112" y="24" width="8" height="8" fill="black"/>
<rect x="128" y="24" width="8" height="8" fill="black"/>
<rect x="136" y="24" width="8" height="8" fill="black"/>
<rect x="144" y="24" width="8" height="8" fill="black"/>
<rect x="160" y="24" width="8" height="8" fill="black"/>
<rect x="0" y="32" width="8" height="8" fill="black"/>
<rect x="16" y="32" width="8" height="8" fill="black"/>
<rect x="24" y="32" width="8" height="8" fill="black"/>
<rect x="32" y="32" width="8" height="8" fill="black"/>
<rect x="48" y="32" width="8" height="8" fill="black"/>
<rect x="64" y="32" width="8" height="8" fill="black"/>
<rect x="72" y="32" width="8" height="8" fill="black"/>
<rect x="80" y="32" width="8" height="8" fill="black"/>
<rect x="88" y="32" width="8" height="8" fill="black"/>
<rect x="96" y="32" width="8" height="8" fill="black"/>
<rect x="112" y="32" width="8" height="8" fill="black"/>
<rect x="128" y="32" width="8" height="8" fill="black"/>
<rect x="136" y="32" width="8" height="8" fill="black"/>
<rect x="144" y="32" width="8" height="8" fill="black"/>
<rect x="160" y="32" width="8" height="8" fill="black"/>
<rect x="0" y="40" width="8" height="8" fill="black"/>
<rect x="48" y="40" width="8" height="8" fill="black"/>
<rect x="80" y="40" width="8" height="8" fill="black"/>
<rect x="112" y="40" width="8" height="8" fill="black"/>
<rect x="160" y="40" width="8" height="8" fill="black"/>
<rect x="0" y="48" width="8" height="8" fill="black"/>
<rect x="8" y="48" width="8" height="8" fill="black"/>
<rect x="16" y="48" width="8" height="8" fill="black"/>
<rect x="24" y="48" width="8" height="8" fill="black"/>
<rect x="32" y="48" width="8" height="8" fill="black"/>
<rect x="40" y="48" width="8" height="8" fill="black"/>
<rect x="48" y="48" width="8" height="8" fill="black"/>
<rect x="64" y="48" width="8" height="8" fill="black"/>
<rect x="80" y="48" width="8" height="8" fill="black"/>
<rect x="96" y="48" width="8" height="8" fill="black"/>
<rect x="112" y="48" width="8" height="8" fill="black"/>
<rect x="120" y="48" width="8" height="8" fill="black"/>
<rect x="128" y="48" width="8" height="8" fill="black"/>
<rect x="136" y="48" width="8" height="8" fill="black"/>
<rect x="144" y="48" width="8" height="8" fill="black"/>
<rect x="152" y="48" width="8" height="8" fill="black"/>
<rect x="160" y="48" width="8" height="8" fill="black"/>
<rect x="88" y="56" width="8" height="8" fill="black"/>
<rect x="0" y="64" width="8" height="8" fill="black"/>
<rect x="8" y="64" width="8" height="8" fill="black"/>
<rect x="16" y="64" width="8" height="8" fill="black"/>
<rect x="24" y="64" width="8" height="8" fill="black"/>
<rect x="48" y="64" width="8" height="8" fill="black"/>
<rect x="64" y="64" width="8" height="8" fill="black"/>
<rect x="80" y="64" width="8" height="8" fill="black"/>
<rect x="88" y="64" width="8" height="8" fill="black"/>
<rect x="104" y="64" width="8" height="8" fill="black"/>
<rect x="128" y="64" width="8" height="8" fill="black"/>
<rect x="136" y="64" width="8" height="8" fill="black"/>
<rect x="144" y="64" width="8" height="8" fill="black"/>
<rect x="160" y="64" width="8" height="8" fill="black"/>
<rect x="0" y="72" width="8" height="8" fill="black"/>
<rect x="16" y="72" width="8" height="8" fill="black"/>
<rect x="24" y="72" width="8" height="8" fill="black"/>
<rect x="64" y="72" width="8" height="8" fill="black"/>
<rect x="80" y="72" width="8" height="8" fill="black"/>
<rect x="88" y="72" width="8" height="8" fill="black"/>
<rect x="104" y="72" width="8" height="8" fill="black"/>
<rect x="112" y="72" width="8" height="8" fill="black"/>
<rect x="120" y="72" width="8" height="8" fill="black"/>
<rect x="128" y="72" width="8" height="8" fill="black"/>
<rect x="136" y="72" width="8" height="8" fill="black"/>
<rect x="144" y="72" width="8" height="8" fill="black"/>
<rect x="152" y="72" width="8" height="8" fill="black"/>
<rect x="160" y="72" width="8" height="8" fill="black"/>
<rect x="0" y="80" width="8" height="8" fill="black"/>
<rect x="16" y="80" width="8" height="8" fill="black"/>
<rect x="24" y="80" width="8" height="8" fill="black"/>
<rect x="40" y="80" width="8" height="8" fill="black"/>
<rect x="48" y="80" width="8" height="8" fill="black"/>
<rect x="56" y="80" width="8" height="8" fill="black"/>
<rect x="80" y="80" width="8" height="8" fill="black"/>
<rect x="104" y="80" width="8" height="8" fill="black"/>
<rect x="136" y="80" width="8" height="8" fill="black"/>
<rect x="152" y="80" width="8" height="8" fill="black"/>
<rect x="160" y="80" width="8" height="8" fill="black"/>
<rect x="16" y="88" width="8" height="8" fill="black"/>
<rect x="24" y="88" width="8" height="8" fill="black"/>
<rect x="32" y="88" width="8" height="8" fill="black"/>
<rect x="40" y="88" width="8" height="8" fill="black"/>
<rect x="64" y="88" width="8" height="8" fill="black"/>
<rect x="88" y="88" width="8" height="8" fill="black"/>
<rect x="96" y="88" width="8" height="8" fill="black"/>
<rect x="120" y="88" width="8" height="8" fill="black"/>
<rect x="136" y="88" width="8" height="8" fill="black"/>
<rect x="152" y="88" width="8" height="8" fill="black"/>
<rect x="8" y="96" width="8" height="8" fill="black"/>
<rect x="32" y="96" width="8" height="8" fill="black"/>
<rect x="48" y="96" width="8" height="8" fill="black"/>
<rect x="64" y="96" width="8" height="8" fill="black"/>
<rect x="72" y="96" width="8" height="8" fill="black"/>
<rect x="80" y="96" width="8" height="8" fill="black"/>
<rect x="96" y="96" width="8" height="8" fill="black"/>
<rect x="104" y="96" width="8" height="8" fill="black"/>
<rect x="112" y="96" width="8" height="8" fill="black"/>
<rect x="128" y="96" width="8" height="8" fill="black"/>
<rect x="136" y="96" width="8" height="8" fill="black"/>
<rect x="160" y="96" width="8" height="8" fill="black"/>
<rect x="64" y="104" width="8" height="8" fill="black"/>
<rect x="80" y="104" width="8" height="8" fill="black"/>
<rect x="96" y="104" width="8" height="8" fill="black"/>
<rect x="112" y="104" width="8" height="8" fill="black"/>
<rect x="128" y="104" width="8" height="8" fill="black"/>
<rect x="0" y="112" width="8" height="8" fill="black"/>
<rect x="8" y="112" width="8" height="8" fill="black"/>
<rect x="16" y="112" width="8" height="8" fill="black"/>
<rect x="24" y="112" width="8" height="8" fill="black"/>
<rect x="32" y="112" width="8" height="8" fill="black"/>
<rect x="40" y="112" width="8" height="8" fill="black"/>
<rect x="48" y="112" width="8" height="8" fill="black"/>
<rect x="88" y="112" width="8" height="8" fill="black"/>
<rect x="104" y="112" width="8" height="8" fill="black"/>
<rect x="128" y="112" width="8" height="8" fill="black"/>
<rect x="0" y="120" width="8" height="8" fill="black"/>
<rect x="48" y="120" width="8" height="8" fill="black"/>
<rect x="72" y="120" width="8" height="8" fill="black"/>
<rect x="80" y="120" width="8" height="8" fill="black"/>
<rect x="104" y="120" width="8" height="8" fill="black"/>
<rect x="120" y="120" width="8" height="8" fill="black"/>
<rect x="128" y="120" width="8" height="8" fill="black"/>
<rect x="136" y="120" width="8" height="8" fill="black"/>
<rect x="144" y="120" width="8" height="8" fill="black"/>
<rect x="152" y="120" width="8" height="8" fill="black"/>
<rect x="0" y="128" width="8" height="8" fill="black"/>
<rect x="16" y="128" width="8" height="8" fill="black"/>
<rect x="24" y="128" width="8" height="8" fill="black"/>
<rect x="32" y="128" width="8" height="8" fill="black"/>
<rect x="48" y="128" width="8" height="8" fill="black"/>
<rect x="72" y="128" width="8" height="8" fill="black"/>
<rect x="80" y="128" width="8" height="8" fill="black"/>
<rect x="88" y="128" width="8" height="8" fill="black"/>
<rect x="128" y="128" width="8" height="8" fill="black"/>
<rect x="144" y="128" width="8" height="8" fill="black"/>
<rect x="160" y="128" width="8" height="8" fill="black"/>
<rect x="0" y="136" width="8" height="8" fill="black"/>
<rect x="16" y="136" width="8" height="8" fill="black"/>
<rect x="24" y="136" width="8" height="8" fill="black"/>
<rect x="32" y="136" width="8" height="8" fill="black"/>
<rect x="48" y="136" width="8" height="8" fill="black"/>
<rect x="64" y="136" width="8" height="8" fill="black"/>
<rect x="80" y="136" width="8" height="8" fill="black"/>
<rect x="88" y="136" width="8" height="8" fill="black"/>
<rect x="96" y="136" width="8" height="8" fill="black"/>
<rect x="104" y="136" width="8" height="8" fill="black"/>
<rect x="112" y="136" width="8" height="8" fill="black"/>
<rect x="120" y="136" width="8" height="8" fill="black"/>
<rect x="0" y="144" width="8" height="8" fill="black"/>
<rect x="16" y="144" width="8" height="8" fill="black"/>
<rect x="24" y="144" width="8" height="8" fill="black"/>
<rect x="32" y="144" width="8" height="8" fill="black"/>
<rect x="48" y="144" width="8" height="8" fill="black"/>
<rect x="64" y="144" width="8" height="8" fill="black"/>
<rect x="88" y="144" width="8" height="8" fill="black"/>
<rect x="96" y="144" width="8" height="8" fill="black"/>
<rect x="120" y="144" width="8" height="8" fill="black"/>
<rect x="144" y="144" width="8" height="8" fill="black"/>
<rect x="0" y="152" width="8" height="8" fill="black"/>
<rect x="48" y="152" width="8" height="8" fill="black"/>
<rect x="64" y="152" width="8" height="8" fill="black"/>
<rect x="104" y="152" width="8" height="8" fill="black"/>
<rect x="112" y="152" width="8" height="8" fill="black"/>
<rect x="120" y="152" width="8" height="8" fill="black"/>
<rect x="128" y="152" width="8" height="8" fill="black"/>
<rect x="160" y="152" width="8" height="8" fill="black"/>
<rect x="0" y="160" width="8" height="8" fill="black"/>
<rect x="8" y="160" width="8" height="8" fill="black"/>
<rect x="16" y="160" width="8" height="8" fill="black"/>
<rect x="24" y="160" width="8" height="8" fill="black"/>
<rect x="32" y="160" width="8" height="8" fill="black"/>
<rect x="40" y="160" width="8" height="8" fill="black"/>
<rect x="48" y="160" width="8" height="8" fill="black"/>
<rect x="64" y="160" width="8" height="8" fill="black"/>
<rect x="104" y="160" width="8" height="8" fill="black"/>
<rect x="112" y="160" width="8" height="8" fill="black"/>
<rect x="128" y="160" width="8" height="8" fill="black"/>
<rect x="136" y="160" width="8" height="8" fill="black"/>
<rect x="144" y="160" width="8" height="8" fill="black"/></svg>